<svg width="24" height="24" viewBox="0 0 24 24" fill="none" xmlns="http://www.w3.org/2000/svg">
<g clip-path="url(#clip0_612_9)">
<path d="M15.1181 19.27C15.309 19.4575 15.5521 19.5597 15.8385 19.5597C16.4115 19.5597 16.8716 19.1166 16.8716 18.5541C16.8716 18.2728 16.75 18.0171 16.5504 17.8211L10.474 11.9916L16.5504 6.17906C16.75 5.98304 16.8716 5.71884 16.8716 5.44611C16.8716 4.88361 16.4115 4.44043 15.8385 4.44043C15.5521 4.44043 15.309 4.5427 15.1181 4.7302L8.36458 11.2075C8.12153 11.429 8.00868 11.7018 8 12.0001C8 12.2984 8.12153 12.5541 8.36458 12.7842L15.1181 19.27Z" fill="#007AFF"/>
</g>
<defs>
<clipPath id="clip0_612_9">
<rect width="8.88889" height="16" fill="white" transform="translate(8 4)"/>
</clipPath>
</defs>
</svg>
