<svg width="35" height="35" viewBox="0 0 35 35" fill="none" xmlns="http://www.w3.org/2000/svg">
<path d="M9 13C9 12.4477 9.44772 12 10 12H26C26.5523 12 27 12.4477 27 13V13C27 13.5523 26.5523 14 26 14H10C9.44772 14 9 13.5523 9 13V13ZM9 18C9 17.4477 9.44772 17 10 17H26C26.5523 17 27 17.4477 27 18V18C27 18.5523 26.5523 19 26 19H10C9.44772 19 9 18.5523 9 18V18ZM9 23C9 22.4477 9.44772 22 10 22H26C26.5523 22 27 22.4477 27 23V23C27 23.5523 26.5523 24 26 24H10C9.44772 24 9 23.5523 9 23V23Z" fill="#217AFF"/>
</svg>
