<svg width="46" height="40" viewBox="0 0 46 40" fill="none" xmlns="http://www.w3.org/2000/svg">
<path d="M19.4746 25C19.2793 25 19.0921 24.9609 18.9131 24.8828C18.734 24.8014 18.5762 24.694 18.4395 24.5605C18.306 24.4238 18.1986 24.266 18.1172 24.0869C18.0391 23.9079 18 23.7207 18 23.5254V16.4746C18 16.2793 18.0391 16.0921 18.1172 15.9131C18.1986 15.734 18.306 15.5778 18.4395 15.4443C18.5762 15.3076 18.734 15.2002 18.9131 15.1221C19.0921 15.0407 19.2793 15 19.4746 15H26.5254C26.7207 15 26.9079 15.0407 27.0869 15.1221C27.266 15.2002 27.4222 15.3076 27.5557 15.4443C27.6924 15.5778 27.7998 15.734 27.8779 15.9131C27.9593 16.0921 28 16.2793 28 16.4746V23.5254C28 23.7207 27.9593 23.9079 27.8779 24.0869C27.7998 24.266 27.6924 24.4238 27.5557 24.5605C27.4222 24.694 27.266 24.8014 27.0869 24.8828C26.9079 24.9609 26.7207 25 26.5254 25H19.4746ZM26.501 23.999C26.5693 23.999 26.6328 23.986 26.6914 23.96C26.7533 23.9339 26.807 23.8981 26.8525 23.8525C26.8981 23.807 26.9339 23.7549 26.96 23.6963C26.986 23.6344 26.999 23.5693 26.999 23.501V16.499C26.999 16.4307 26.986 16.3672 26.96 16.3086C26.9339 16.2467 26.8981 16.193 26.8525 16.1475C26.807 16.1019 26.7533 16.0661 26.6914 16.04C26.6328 16.014 26.5693 16.001 26.501 16.001H19.499C19.4307 16.001 19.3656 16.014 19.3037 16.04C19.2451 16.0661 19.193 16.1019 19.1475 16.1475C19.1019 16.193 19.0661 16.2467 19.04 16.3086C19.014 16.3672 19.001 16.4307 19.001 16.499V23.501C19.001 23.5693 19.014 23.6344 19.04 23.6963C19.0661 23.7549 19.1019 23.807 19.1475 23.8525C19.193 23.8981 19.2451 23.9339 19.3037 23.96C19.3656 23.986 19.4307 23.999 19.499 23.999H26.501Z" fill="black" fill-opacity="0.8956"/>
</svg>
