<svg width="46" height="40" viewBox="0 0 46 40" fill="none" xmlns="http://www.w3.org/2000/svg">
<path d="M18.498 20C18.4297 20 18.3646 19.987 18.3027 19.9609C18.2441 19.9349 18.1921 19.8991 18.1465 19.8535C18.1009 19.8079 18.0651 19.7559 18.0391 19.6973C18.013 19.6354 18 19.5703 18 19.502C18 19.4336 18.013 19.3701 18.0391 19.3115C18.0651 19.2497 18.1009 19.196 18.1465 19.1504C18.1921 19.1016 18.2441 19.0641 18.3027 19.0381C18.3646 19.012 18.4297 18.999 18.498 18.999H27.502C27.5703 18.999 27.6338 19.012 27.6924 19.0381C27.7542 19.0641 27.8079 19.1016 27.8535 19.1504C27.8991 19.196 27.9349 19.2497 27.9609 19.3115C27.987 19.3701 28 19.4336 28 19.502C28 19.5703 27.987 19.6354 27.9609 19.6973C27.9349 19.7559 27.8991 19.8079 27.8535 19.8535C27.8079 19.8991 27.7542 19.9349 27.6924 19.9609C27.6338 19.987 27.5703 20 27.502 20H18.498Z" fill="black" fill-opacity="0.8956"/>
</svg>
