<svg width="46" height="40" viewBox="0 0 46 40" fill="none" xmlns="http://www.w3.org/2000/svg">
<path d="M23 20.708L18.8545 24.8535C18.7568 24.9512 18.6396 25 18.5029 25C18.3597 25 18.2393 24.9528 18.1416 24.8584C18.0472 24.7607 18 24.6403 18 24.4971C18 24.3604 18.0488 24.2432 18.1465 24.1455L22.292 20L18.1465 15.8545C18.0488 15.7568 18 15.638 18 15.498C18 15.4297 18.013 15.3646 18.0391 15.3027C18.0651 15.2409 18.1009 15.1888 18.1465 15.1465C18.1921 15.1009 18.2458 15.0651 18.3076 15.0391C18.3695 15.013 18.4346 15 18.5029 15C18.6396 15 18.7568 15.0488 18.8545 15.1465L23 19.292L27.1455 15.1465C27.2432 15.0488 27.362 15 27.502 15C27.5703 15 27.6338 15.013 27.6924 15.0391C27.7542 15.0651 27.8079 15.1009 27.8535 15.1465C27.8991 15.1921 27.9349 15.2458 27.9609 15.3076C27.987 15.3662 28 15.4297 28 15.498C28 15.638 27.9512 15.7568 27.8535 15.8545L23.708 20L27.8535 24.1455C27.9512 24.2432 28 24.3604 28 24.4971C28 24.5654 27.987 24.6305 27.9609 24.6924C27.9349 24.7542 27.8991 24.8079 27.8535 24.8535C27.8112 24.8991 27.7591 24.9349 27.6973 24.9609C27.6354 24.987 27.5703 25 27.502 25C27.362 25 27.2432 24.9512 27.1455 24.8535L23 20.708Z" fill="black" fill-opacity="0.8956"/>
</svg>
