<svg width="28" height="28" viewBox="0 0 28 28" fill="none" xmlns="http://www.w3.org/2000/svg">
<path d="M16.1982 21.4966L9.36035 14.8081C9.11426 14.5708 9 14.3071 9 13.9995C9 13.6919 9.12304 13.4106 9.36035 13.1821L16.1982 6.50244C16.4004 6.30908 16.6377 6.20361 16.9277 6.20361C17.5166 6.20361 17.9736 6.66064 17.9736 7.24072C17.9736 7.52197 17.8594 7.79443 17.6572 7.99658L11.4961 13.9907L17.6572 20.0024C17.8594 20.2046 17.9736 20.4683 17.9736 20.7583C17.9736 21.3384 17.5166 21.7954 16.9277 21.7954C16.6465 21.7954 16.4004 21.6899 16.1982 21.4966Z" fill="#1C1C1E"/>
</svg>
